<svg width="20" height="20" viewBox="0 0 20 20" fill="none" xmlns="http://www.w3.org/2000/svg">
<path d="M9.99995 1.04167C10.6942 1.04167 11.1856 1.47834 11.5828 1.99708C11.9796 2.51536 12.4008 3.27426 12.9182 4.20248L13.1917 4.69239C13.5187 5.27885 13.602 5.40373 13.7068 5.4834C13.8078 5.56009 13.9384 5.60319 14.5743 5.74708L15.1049 5.8667C16.1085 6.09379 16.9341 6.27949 17.5325 6.51531C18.1426 6.75575 18.677 7.10999 18.8826 7.771C19.0859 8.4251 18.8567 9.02697 18.5034 9.58822C18.1543 10.1427 17.5935 10.7964 16.9083 11.5975L16.547 12.0207C16.1161 12.5245 16.0262 12.648 15.9838 12.784C15.9408 12.9227 15.9449 13.0833 16.0099 13.7541L16.0644 14.318C16.1681 15.388 16.2541 16.2592 16.2247 16.9198C16.1953 17.5813 16.0447 18.2167 15.4988 18.6312C14.9425 19.0534 14.295 19.0063 13.6702 18.8273C13.0534 18.6506 12.2816 18.2931 11.3419 17.8605L10.8455 17.6318C10.2478 17.3566 10.1199 17.312 9.99995 17.312C9.87999 17.312 9.75214 17.3566 9.15441 17.6318L8.65799 17.8605C7.71834 18.2931 6.94649 18.6506 6.32971 18.8273C5.70491 19.0063 5.05735 19.0534 4.50109 18.6312C3.95521 18.2167 3.80465 17.5813 3.77518 16.9198C3.74575 16.2592 3.83181 15.3881 3.9355 14.318L3.99002 13.7541C4.05506 13.083 4.05912 12.9227 4.01607 12.784C3.97376 12.648 3.88375 12.5245 3.45292 12.0207L3.09159 11.5975C2.40646 10.7964 1.84562 10.1427 1.49654 9.58822C1.14322 9.02697 0.913988 8.42511 1.1173 7.771C1.32286 7.11 1.85726 6.75576 2.4674 6.51531C3.06578 6.27949 3.89134 6.09379 4.89497 5.8667L5.42557 5.74708C6.06151 5.60318 6.19207 5.56009 6.29309 5.4834C6.3979 5.40372 6.48145 5.2786 6.80822 4.69239L7.08166 4.20248C7.59908 3.27427 8.02029 2.51536 8.41711 1.99708C8.81435 1.47835 9.30569 1.04167 9.99995 1.04167Z" fill="#EEA62F"/>
</svg>
